#N canvas 31 23 1103 449 10;
#X text 375 61 fader \, knob pairs 1-9;
#X text 535 61 creation argument is current midi channel of Nano;
#X obj 81 100 ctlin 14 \$1;
#X obj 181 100 ctlin 15 \$1;
#X obj 281 100 ctlin 16 \$1;
#X obj 381 100 ctlin 17 \$1;
#X obj 481 100 ctlin 18 \$1;
#X obj 581 100 ctlin 19 \$1;
#X obj 681 100 ctlin 20 \$1;
#X obj 781 100 ctlin 21 \$1;
#X obj 881 100 ctlin 22 \$1;
#X obj 831 180 ctlin 13 \$1;
#X obj 731 180 ctlin 12 \$1;
#X obj 631 180 ctlin 9 \$1;
#X obj 531 180 ctlin 8 \$1;
#X obj 431 180 ctlin 6 \$1;
#X obj 331 180 ctlin 5 \$1;
#X obj 231 180 ctlin 4 \$1;
#X obj 131 180 ctlin 3 \$1;
#X obj 31 180 ctlin 2 \$1;
#X msg 81 121 0 \$1;
#X obj 531 322 outlet;
#X msg 181 121 1 \$1;
#X msg 281 121 2 \$1;
#X msg 381 121 3 \$1;
#X msg 481 121 4 \$1;
#X msg 581 121 5 \$1;
#X msg 681 121 6 \$1;
#X msg 781 121 7 \$1;
#X msg 881 121 8 \$1;
#X msg 31 201 9 \$1;
#X msg 131 201 10 \$1;
#X msg 231 201 11 \$1;
#X msg 331 201 12 \$1;
#X msg 431 201 13 \$1;
#X msg 531 201 14 \$1;
#X msg 631 201 15 \$1;
#X msg 731 201 16 \$1;
#X msg 831 201 17 \$1;
#X connect 2 0 20 0;
#X connect 3 0 22 0;
#X connect 4 0 23 0;
#X connect 5 0 24 0;
#X connect 6 0 25 0;
#X connect 7 0 26 0;
#X connect 8 0 27 0;
#X connect 9 0 28 0;
#X connect 10 0 29 0;
#X connect 11 0 38 0;
#X connect 12 0 37 0;
#X connect 13 0 36 0;
#X connect 14 0 35 0;
#X connect 15 0 34 0;
#X connect 16 0 33 0;
#X connect 17 0 32 0;
#X connect 18 0 31 0;
#X connect 19 0 30 0;
#X connect 20 0 21 0;
#X connect 22 0 21 0;
#X connect 23 0 21 0;
#X connect 24 0 21 0;
#X connect 25 0 21 0;
#X connect 26 0 21 0;
#X connect 27 0 21 0;
#X connect 28 0 21 0;
#X connect 29 0 21 0;
#X connect 30 0 21 0;
#X connect 31 0 21 0;
#X connect 32 0 21 0;
#X connect 33 0 21 0;
#X connect 34 0 21 0;
#X connect 35 0 21 0;
#X connect 36 0 21 0;
#X connect 37 0 21 0;
#X connect 38 0 21 0;
