#N canvas 278 328 966 382 10;
#X text 731 99 upper row;
#X text 701 149 lower row;
#X obj 61 139 ctlin 17 1;
#X obj 101 89 ctlin 16 1;
#X obj 130 139 ctlin 17 2;
#X obj 198 139 ctlin 17 3;
#X obj 267 139 ctlin 17 4;
#X obj 336 139 ctlin 17 5;
#X obj 405 139 ctlin 17 6;
#X obj 474 139 ctlin 17 7;
#X obj 544 139 ctlin 17 8;
#X obj 170 89 ctlin 16 2;
#X obj 238 89 ctlin 16 3;
#X obj 307 89 ctlin 16 4;
#X obj 376 89 ctlin 16 5;
#X obj 445 89 ctlin 16 6;
#X obj 514 89 ctlin 16 7;
#X obj 584 89 ctlin 16 8;
#X obj 652 89 ctlin 16 9;
#X obj 612 139 ctlin 17 9;
#X obj 281 331 outlet;
#X msg 101 110 0 \$1;
#X msg 170 110 1 \$1;
#X msg 238 110 2 \$1;
#X msg 307 110 3 \$1;
#X msg 376 110 4 \$1;
#X msg 445 110 5 \$1;
#X msg 514 110 6 \$1;
#X msg 584 110 7 \$1;
#X msg 652 110 8 \$1;
#X msg 61 160 9 \$1;
#X msg 130 160 10 \$1;
#X msg 198 160 11 \$1;
#X msg 267 160 12 \$1;
#X msg 336 160 13 \$1;
#X msg 405 160 14 \$1;
#X msg 474 160 15 \$1;
#X msg 544 160 16 \$1;
#X msg 612 160 17 \$1;
#X connect 2 0 30 0;
#X connect 3 0 21 0;
#X connect 4 0 31 0;
#X connect 5 0 32 0;
#X connect 6 0 33 0;
#X connect 7 0 34 0;
#X connect 8 0 35 0;
#X connect 9 0 36 0;
#X connect 10 0 37 0;
#X connect 11 0 22 0;
#X connect 12 0 23 0;
#X connect 13 0 24 0;
#X connect 14 0 25 0;
#X connect 15 0 26 0;
#X connect 16 0 27 0;
#X connect 17 0 28 0;
#X connect 18 0 29 0;
#X connect 19 0 38 0;
#X connect 21 0 20 0;
#X connect 22 0 20 0;
#X connect 23 0 20 0;
#X connect 24 0 20 0;
#X connect 25 0 20 0;
#X connect 26 0 20 0;
#X connect 27 0 20 0;
#X connect 28 0 20 0;
#X connect 29 0 20 0;
#X connect 30 0 20 0;
#X connect 31 0 20 0;
#X connect 32 0 20 0;
#X connect 33 0 20 0;
#X connect 34 0 20 0;
#X connect 35 0 20 0;
#X connect 36 0 20 0;
#X connect 37 0 20 0;
#X connect 38 0 20 0;
