#N canvas 187 23 966 382 10;
#X text 811 99 upper row;
#X text 781 179 lower row;
#X text 302 34 creation argument is current midi channel that the Nano
is on;
#X obj 101 89 ctlin 67 \$1;
#X obj 61 169 ctlin 76 \$1;
#X obj 140 169 ctlin 77 \$1;
#X obj 180 89 ctlin 68 \$1;
#X obj 218 169 ctlin 78 \$1;
#X obj 258 89 ctlin 69 \$1;
#X obj 297 169 ctlin 79 \$1;
#X obj 337 89 ctlin 70 \$1;
#X obj 376 169 ctlin 80 \$1;
#X obj 416 89 ctlin 71 \$1;
#X obj 455 169 ctlin 81 \$1;
#X obj 495 89 ctlin 72 \$1;
#X obj 534 169 ctlin 82 \$1;
#X obj 574 89 ctlin 73 \$1;
#X obj 614 169 ctlin 83 \$1;
#X obj 654 89 ctlin 74 \$1;
#X obj 692 169 ctlin 84 \$1;
#X obj 732 89 ctlin 75 \$1;
#X msg 101 111 0 \$1;
#X obj 455 308 outlet;
#X msg 180 111 1 \$1;
#X msg 258 111 2 \$1;
#X msg 337 111 3 \$1;
#X msg 416 111 4 \$1;
#X msg 495 111 5 \$1;
#X msg 574 111 6 \$1;
#X msg 654 111 7 \$1;
#X msg 732 111 8 \$1;
#X msg 61 191 9 \$1;
#X msg 140 191 10 \$1;
#X msg 218 191 11 \$1;
#X msg 297 191 12 \$1;
#X msg 376 191 13 \$1;
#X msg 455 191 14 \$1;
#X msg 534 191 15 \$1;
#X msg 614 191 16 \$1;
#X msg 692 191 17 \$1;
#X connect 3 0 21 0;
#X connect 4 0 31 0;
#X connect 5 0 32 0;
#X connect 6 0 23 0;
#X connect 7 0 33 0;
#X connect 8 0 24 0;
#X connect 9 0 34 0;
#X connect 10 0 25 0;
#X connect 11 0 35 0;
#X connect 12 0 26 0;
#X connect 13 0 36 0;
#X connect 14 0 27 0;
#X connect 15 0 37 0;
#X connect 16 0 28 0;
#X connect 17 0 38 0;
#X connect 18 0 29 0;
#X connect 19 0 39 0;
#X connect 20 0 30 0;
#X connect 21 0 22 0;
#X connect 23 0 22 0;
#X connect 24 0 22 0;
#X connect 25 0 22 0;
#X connect 26 0 22 0;
#X connect 27 0 22 0;
#X connect 28 0 22 0;
#X connect 29 0 22 0;
#X connect 30 0 22 0;
#X connect 31 0 22 0;
#X connect 32 0 22 0;
#X connect 33 0 22 0;
#X connect 34 0 22 0;
#X connect 35 0 22 0;
#X connect 36 0 22 0;
#X connect 37 0 22 0;
#X connect 38 0 22 0;
#X connect 39 0 22 0;
