#N canvas 31 23 1117 751 10;
#X text 375 61 fader \, knob pairs 1-9;
#X obj 31 150 ctlin 7 1;
#X obj 131 150 ctlin 7 2;
#X obj 231 150 ctlin 7 3;
#X obj 331 150 ctlin 7 4;
#X obj 431 150 ctlin 7 5;
#X obj 531 150 ctlin 7 6;
#X obj 631 150 ctlin 7 7;
#X obj 731 150 ctlin 7 8;
#X obj 831 150 ctlin 7 9;
#X obj 81 100 ctlin 10 1;
#X obj 181 100 ctlin 10 2;
#X obj 281 100 ctlin 10 3;
#X obj 381 100 ctlin 10 4;
#X obj 481 100 ctlin 10 5;
#X obj 581 100 ctlin 10 6;
#X obj 681 100 ctlin 10 7;
#X obj 781 100 ctlin 10 8;
#X obj 881 100 ctlin 10 9;
#X obj 381 313 outlet;
#X msg 81 121 0 \$1;
#X msg 181 121 1 \$1;
#X msg 281 121 2 \$1;
#X msg 381 121 3 \$1;
#X msg 481 121 4 \$1;
#X msg 581 121 5 \$1;
#X msg 681 121 6 \$1;
#X msg 781 121 7 \$1;
#X msg 881 121 8 \$1;
#X msg 31 171 9 \$1;
#X msg 131 171 10 \$1;
#X msg 231 171 11 \$1;
#X msg 331 171 12 \$1;
#X msg 431 171 13 \$1;
#X msg 531 171 14 \$1;
#X msg 631 171 15 \$1;
#X msg 731 171 16 \$1;
#X msg 831 171 17 \$1;
#X connect 1 0 29 0;
#X connect 2 0 30 0;
#X connect 3 0 31 0;
#X connect 4 0 32 0;
#X connect 5 0 33 0;
#X connect 6 0 34 0;
#X connect 7 0 35 0;
#X connect 8 0 36 0;
#X connect 9 0 37 0;
#X connect 10 0 20 0;
#X connect 11 0 21 0;
#X connect 12 0 22 0;
#X connect 13 0 23 0;
#X connect 14 0 24 0;
#X connect 15 0 25 0;
#X connect 16 0 26 0;
#X connect 17 0 27 0;
#X connect 18 0 28 0;
#X connect 20 0 19 0;
#X connect 21 0 19 0;
#X connect 22 0 19 0;
#X connect 23 0 19 0;
#X connect 24 0 19 0;
#X connect 25 0 19 0;
#X connect 26 0 19 0;
#X connect 27 0 19 0;
#X connect 28 0 19 0;
#X connect 29 0 19 0;
#X connect 30 0 19 0;
#X connect 31 0 19 0;
#X connect 32 0 19 0;
#X connect 33 0 19 0;
#X connect 34 0 19 0;
#X connect 35 0 19 0;
#X connect 36 0 19 0;
#X connect 37 0 19 0;
