#N canvas 0 23 1024 548 10;
#X text 198 82 rewind;
#X text 278 82 play;
#X text 348 82 fast forward;
#X text 438 82 loop;
#X text 518 82 stop;
#X text 598 82 record;
#X obj 195 104 ctlin 47 \$1;
#X obj 275 104 ctlin 45 \$1;
#X obj 355 104 ctlin 48 \$1;
#X obj 435 104 ctlin 49 \$1;
#X obj 515 104 ctlin 46 \$1;
#X obj 595 104 ctlin 44 \$1;
#X msg 195 125 0 \$1;
#X obj 195 196 outlet;
#X msg 275 125 1 \$1;
#X msg 355 125 2 \$1;
#X msg 435 125 3 \$1;
#X msg 515 125 4 \$1;
#X msg 595 125 5 \$1;
#X connect 6 0 12 0;
#X connect 7 0 14 0;
#X connect 8 0 15 0;
#X connect 9 0 16 0;
#X connect 10 0 17 0;
#X connect 11 0 18 0;
#X connect 12 0 13 0;
#X connect 14 0 13 0;
#X connect 15 0 13 0;
#X connect 16 0 13 0;
#X connect 17 0 13 0;
#X connect 18 0 13 0;
