#N canvas 0 23 1280 592 10;
#X obj 188 89 notein \$1;
#X obj 188 111 pack f f, f 9;
#X obj 188 183 outlet;
#X text 183 70 note input;
#X text 399 70 mod wheel (0-127);
#X obj 267 88 bendin \$1;
#X text 259 70 bend wheel (0-16384);
#X obj 407 88 ctlin 1 \$1;
#X obj 627 88 ctlin 64 \$1;
#X text 619 70 foot pedal (0 or 127);
#X obj 527 88 ctlin 7 \$1;
#X text 519 70 fader (0-127);
#X text 418 21 creation argument is midi channel of the keyrig;
#X msg 188 132 0 \$1 \$2;
#X msg 267 109 1 \$1;
#X msg 407 109 2 \$1;
#X msg 527 109 3 \$1;
#X msg 627 109 4 \$1;
#X connect 0 0 1 0;
#X connect 0 1 1 1;
#X connect 1 0 13 0;
#X connect 5 0 14 0;
#X connect 7 0 15 0;
#X connect 8 0 17 0;
#X connect 10 0 16 0;
#X connect 13 0 2 0;
#X connect 14 0 2 0;
#X connect 15 0 2 0;
#X connect 16 0 2 0;
#X connect 17 0 2 0;
