#N canvas 91 214 1278 523 10;
#X obj 31 103 cnv 15 20 75 empty \$0-canvas_0 empty 20 12 0 14 -249661
-66577 0;
#X obj 51 103 cnv 15 20 75 empty \$0-canvas_2 empty 20 12 0 14 -249661
-66577 0;
#X obj 71 103 cnv 15 20 75 empty \$0-canvas_4 empty 20 12 0 14 -249661
-66577 0;
#X obj 41 103 cnv 15 20 45 empty \$0-canvas_1 empty 20 12 0 14 -66577
-66577 0;
#X obj 61 103 cnv 15 20 45 empty \$0-canvas_3 empty 20 12 0 14 -66577
-66577 0;
#X obj 91 103 cnv 15 20 75 empty \$0-canvas_5 empty 20 12 0 14 -249661
-66577 0;
#X obj 111 103 cnv 15 20 75 empty \$0-canvas_7 empty 20 12 0 14 -249661
-66577 0;
#X obj 131 103 cnv 15 20 75 empty \$0-canvas_9 empty 20 12 0 14 -249661
-66577 0;
#X obj 101 103 cnv 15 20 45 empty \$0-canvas_6 empty 20 12 0 14 -66577
-66577 0;
#X obj 121 103 cnv 15 20 45 empty \$0-canvas_8 empty 20 12 0 14 -66577
-66577 0;
#X obj 151 103 cnv 15 20 75 empty \$0-canvas_11 empty 20 12 0 14 -249661
-66577 0;
#X obj 141 103 cnv 15 20 45 empty \$0-canvas_10 empty 20 12 0 14 -66577
-66577 0;
#X obj 210 102 vsl 30 75 0 127 0 0 \$0-velocity_s \$0-velocity_r empty
0 -9 0 10 -249661 -260097 -1 0 1;
#X obj 270 97 / 127;
#X obj 270 169 *;
#X obj 285 117 r \$0-velocity_s;
#X obj 285 139 t f f f f f f f f f f f f f, f 117;
#X obj 363 97 / 127;
#X obj 363 169 *;
#X obj 410 97 / 127;
#X obj 410 169 *;
#X obj 457 97 / 127;
#X obj 457 169 *;
#X obj 503 97 / 127;
#X obj 503 169 *;
#X obj 644 97 / 127;
#X obj 644 169 *;
#X obj 690 97 / 127;
#X obj 690 169 *;
#X obj 737 97 / 127;
#X obj 737 169 *;
#X obj 784 97 / 127;
#X obj 784 169 *;
#X obj 831 97 / 127;
#X obj 831 169 *;
#X obj 877 97 / 127;
#X obj 877 169 *;
#X obj 925 97 / 127;
#X obj 925 169 *;
#X obj 551 97 / 127;
#X obj 551 169 *;
#X obj 285 191 r \$0-octave;
#X obj 1187 65 loadbang;
#X obj 1187 135 f;
#X obj 1020 167 spigot;
#X obj 1020 119 t b f b;
#X obj 1020 211 - 1;
#X obj 1020 189 f;
#X obj 1053 144 == 127;
#X obj 1072 167 spigot;
#X obj 1072 119 t b f b;
#X obj 1072 189 f;
#X obj 1105 144 == 127;
#X obj 1202 113 clip 0 6;
#X obj 1072 211 + 1;
#X obj 1187 157 s \$0-octave;
#X obj 285 256 t f f f f f f f f f f f f f, f 126;
#X obj 285 235 * 12;
#X obj 315 276 + 0;
#X obj 375 276 + 1;
#X obj 435 276 + 2;
#X obj 495 276 + 3;
#X obj 555 276 + 4;
#X obj 615 276 + 5;
#X obj 675 276 + 6;
#X obj 735 276 + 7;
#X obj 795 276 + 8;
#X obj 855 276 + 9;
#X obj 915 276 + 10;
#X obj 975 276 + 11;
#X obj 1035 276 + 12;
#X obj 270 302 swap, f 8;
#X obj 270 324 pack f f;
#X obj 330 302 swap, f 8;
#X obj 330 324 pack f f;
#X obj 390 302 swap, f 8;
#X obj 390 324 pack f f;
#X obj 450 302 swap, f 8;
#X obj 450 324 pack f f;
#X obj 510 302 swap, f 8;
#X obj 510 324 pack f f;
#X obj 570 302 swap, f 8;
#X obj 570 324 pack f f;
#X obj 630 302 swap, f 8;
#X obj 630 324 pack f f;
#X obj 690 302 swap, f 8;
#X obj 690 324 pack f f;
#X obj 750 302 swap, f 8;
#X obj 750 324 pack f f;
#X obj 810 302 swap, f 8;
#X obj 810 324 pack f f;
#X obj 870 302 swap, f 8;
#X obj 870 324 pack f f;
#X obj 930 302 swap, f 8;
#X obj 930 324 pack f f;
#X obj 990 302 swap, f 8;
#X obj 990 324 pack f f;
#N canvas 0 23 1272 540 drawOctave 0;
#X obj 25 16 r \$0-octave;
#X msg 25 38 \$1 bang;
#X obj 931 86 loadbang;
#X obj 931 108 t b b b, f 28;
#X obj 1096 191 f \$0;
#X obj 25 398 pack f f f, f 21;
#X obj 174 398 pack f f f, f 21;
#X obj 324 398 pack f f f, f 21;
#X obj 473 398 pack f f f, f 21;
#X obj 623 398 pack f f f, f 21;
#X obj 772 398 pack f f f, f 21;
#X obj 922 398 pack f f f, f 21;
#X obj 25 60 route 0 1 2 3 4 5 6, f 175;
#X msg 1013 129 243 243 243;
#X msg 931 129 255 131 0;
#X msg 25 420 \; \$3-octave_0 color \$1 \; \$3-octave_1 color \$2 \;
\$3-octave_2 color \$2 \; \$3-octave_3 color \$2 \; \$3-octave_4 color
\$2 \; \$3-octave_5 color \$2 \; \$3-octave_6 color \$2 \;;
#X msg 174 420 \; \$3-octave_0 color \$2 \; \$3-octave_1 color \$1
\; \$3-octave_2 color \$2 \; \$3-octave_3 color \$2 \; \$3-octave_4
color \$2 \; \$3-octave_5 color \$2 \; \$3-octave_6 color \$2 \;;
#X msg 324 420 \; \$3-octave_0 color \$2 \; \$3-octave_1 color \$2
\; \$3-octave_2 color \$1 \; \$3-octave_3 color \$2 \; \$3-octave_4
color \$2 \; \$3-octave_5 color \$2 \; \$3-octave_6 color \$2 \;;
#X msg 473 420 \; \$3-octave_0 color \$2 \; \$3-octave_1 color \$2
\; \$3-octave_2 color \$2 \; \$3-octave_3 color \$1 \; \$3-octave_4
color \$2 \; \$3-octave_5 color \$2 \; \$3-octave_6 color \$2 \;;
#X msg 623 420 \; \$3-octave_0 color \$2 \; \$3-octave_1 color \$2
\; \$3-octave_2 color \$2 \; \$3-octave_3 color \$2 \; \$3-octave_4
color \$1 \; \$3-octave_5 color \$2 \; \$3-octave_6 color \$2 \;;
#X msg 772 420 \; \$3-octave_0 color \$2 \; \$3-octave_1 color \$2
\; \$3-octave_2 color \$2 \; \$3-octave_3 color \$2 \; \$3-octave_4
color \$2 \; \$3-octave_5 color \$1 \; \$3-octave_6 color \$2 \;;
#X msg 922 420 \; \$3-octave_0 color \$2 \; \$3-octave_1 color \$2
\; \$3-octave_2 color \$2 \; \$3-octave_3 color \$2 \; \$3-octave_4
color \$2 \; \$3-octave_5 color \$2 \; \$3-octave_6 color \$1 \;;
#X obj 931 151 uutil/headless/rgbtopdcolour;
#X obj 1013 171 uutil/headless/rgbtopdcolour;
#X connect 0 0 1 0;
#X connect 1 0 12 0;
#X connect 2 0 3 0;
#X connect 3 0 14 0;
#X connect 3 1 13 0;
#X connect 3 2 4 0;
#X connect 4 0 5 2;
#X connect 4 0 6 2;
#X connect 4 0 7 2;
#X connect 4 0 8 2;
#X connect 4 0 9 2;
#X connect 4 0 10 2;
#X connect 4 0 11 2;
#X connect 5 0 15 0;
#X connect 6 0 16 0;
#X connect 7 0 17 0;
#X connect 8 0 18 0;
#X connect 9 0 19 0;
#X connect 10 0 20 0;
#X connect 11 0 21 0;
#X connect 12 0 5 0;
#X connect 12 1 6 0;
#X connect 12 2 7 0;
#X connect 12 3 8 0;
#X connect 12 4 9 0;
#X connect 12 5 10 0;
#X connect 12 6 11 0;
#X connect 13 0 23 0;
#X connect 14 0 22 0;
#X connect 22 0 5 0;
#X connect 22 0 6 0;
#X connect 22 0 7 0;
#X connect 22 0 8 0;
#X connect 22 0 9 0;
#X connect 22 0 10 0;
#X connect 22 0 11 0;
#X connect 23 0 5 1;
#X connect 23 0 6 1;
#X connect 23 0 7 1;
#X connect 23 0 8 1;
#X connect 23 0 9 1;
#X connect 23 0 10 1;
#X connect 23 0 11 1;
#X restore 86 248 pd drawOctave;
#X obj 270 446 outlet;
#N canvas 88 246 1350 554 drawKeys 0;
#X obj 20 210 inlet;
#X obj 100 210 inlet;
#X obj 190 210 inlet;
#X obj 270 210 inlet;
#X obj 360 210 inlet;
#X obj 450 210 inlet;
#X obj 530 210 inlet;
#X obj 620 210 inlet;
#X obj 700 210 inlet;
#X obj 790 210 inlet;
#X obj 870 210 inlet;
#X obj 960 210 inlet;
#X obj 1070 210 inlet;
#X obj 374 4 loadbang;
#X obj 629 49 f \$0;
#X msg 459 47 243 243 243;
#X msg 374 47 255 131 0;
#X obj 374 26 t b b b b, f 43;
#X msg 544 47 64 64 64;
#X obj 20 253 route 0 127;
#X obj 20 384 pack f f;
#X obj 51 404 pack f f;
#X msg 20 232 \$1 bang;
#X msg 20 426 \; \$2-canvas_0 color \$1, f 13;
#X obj 100 253 route 0 127;
#X obj 100 304 pack f f;
#X obj 131 324 pack f f;
#X msg 100 232 \$1 bang;
#X obj 190 253 route 0 127;
#X obj 190 384 pack f f;
#X obj 221 404 pack f f;
#X msg 190 232 \$1 bang;
#X obj 270 253 route 0 127;
#X obj 270 304 pack f f;
#X obj 301 324 pack f f;
#X msg 270 232 \$1 bang;
#X obj 360 253 route 0 127;
#X obj 360 384 pack f f;
#X obj 391 404 pack f f;
#X msg 360 232 \$1 bang;
#X obj 450 253 route 0 127;
#X obj 450 384 pack f f;
#X obj 481 404 pack f f;
#X msg 450 232 \$1 bang;
#X obj 530 253 route 0 127;
#X obj 530 304 pack f f;
#X obj 561 324 pack f f;
#X msg 530 232 \$1 bang;
#X obj 620 253 route 0 127;
#X obj 620 384 pack f f;
#X obj 651 404 pack f f;
#X msg 620 232 \$1 bang;
#X obj 700 253 route 0 127;
#X obj 700 304 pack f f;
#X obj 731 324 pack f f;
#X msg 700 232 \$1 bang;
#X obj 790 253 route 0 127;
#X obj 790 384 pack f f;
#X obj 821 404 pack f f;
#X msg 790 232 \$1 bang;
#X obj 870 253 route 0 127;
#X obj 870 304 pack f f;
#X obj 901 324 pack f f;
#X msg 870 232 \$1 bang;
#X obj 960 253 route 0 127;
#X obj 960 384 pack f f;
#X obj 991 404 pack f f;
#X msg 960 232 \$1 bang;
#X obj 1070 253 route 0 127;
#X obj 1070 384 pack f f;
#X obj 1101 404 pack f f;
#X msg 1070 232 \$1 bang;
#X msg 190 426 \; \$2-canvas_2 color \$1, f 13;
#X msg 100 346 \; \$2-canvas_1 color \$1, f 13;
#X msg 270 346 \; \$2-canvas_3 color \$1, f 13;
#X msg 360 426 \; \$2-canvas_4 color \$1, f 13;
#X msg 450 426 \; \$2-canvas_5 color \$1, f 13;
#X msg 530 346 \; \$2-canvas_6 color \$1, f 13;
#X msg 620 426 \; \$2-canvas_7 color \$1, f 13;
#X msg 700 346 \; \$2-canvas_8 color \$1, f 13;
#X msg 790 426 \; \$2-canvas_9 color \$1, f 13;
#X msg 870 346 \; \$2-canvas_10 color \$1, f 13;
#X msg 960 426 \; \$2-canvas_11 color \$1, f 13;
#X msg 1070 426 \; \$2-canvas_12 color \$1;
#X obj 544 69 uutil/headless/rgbtopdcolour;
#X obj 459 89 uutil/headless/rgbtopdcolour;
#X obj 374 109 uutil/headless/rgbtopdcolour;
#X connect 0 0 22 0;
#X connect 1 0 27 0;
#X connect 2 0 31 0;
#X connect 3 0 35 0;
#X connect 4 0 39 0;
#X connect 5 0 43 0;
#X connect 6 0 47 0;
#X connect 7 0 51 0;
#X connect 8 0 55 0;
#X connect 9 0 59 0;
#X connect 10 0 63 0;
#X connect 11 0 67 0;
#X connect 12 0 71 0;
#X connect 13 0 17 0;
#X connect 14 0 20 1;
#X connect 14 0 21 1;
#X connect 14 0 25 1;
#X connect 14 0 26 1;
#X connect 14 0 29 1;
#X connect 14 0 30 1;
#X connect 14 0 33 1;
#X connect 14 0 34 1;
#X connect 14 0 37 1;
#X connect 14 0 38 1;
#X connect 14 0 41 1;
#X connect 14 0 42 1;
#X connect 14 0 45 1;
#X connect 14 0 46 1;
#X connect 14 0 49 1;
#X connect 14 0 50 1;
#X connect 14 0 53 1;
#X connect 14 0 54 1;
#X connect 14 0 57 1;
#X connect 14 0 58 1;
#X connect 14 0 61 1;
#X connect 14 0 62 1;
#X connect 14 0 65 1;
#X connect 14 0 66 1;
#X connect 14 0 69 1;
#X connect 14 0 70 1;
#X connect 15 0 85 0;
#X connect 16 0 86 0;
#X connect 17 0 16 0;
#X connect 17 1 15 0;
#X connect 17 2 18 0;
#X connect 17 3 14 0;
#X connect 18 0 84 0;
#X connect 19 0 20 0;
#X connect 19 1 21 0;
#X connect 20 0 23 0;
#X connect 21 0 23 0;
#X connect 22 0 19 0;
#X connect 24 0 25 0;
#X connect 24 1 26 0;
#X connect 25 0 73 0;
#X connect 26 0 73 0;
#X connect 27 0 24 0;
#X connect 28 0 29 0;
#X connect 28 1 30 0;
#X connect 29 0 72 0;
#X connect 30 0 72 0;
#X connect 31 0 28 0;
#X connect 32 0 33 0;
#X connect 32 1 34 0;
#X connect 33 0 74 0;
#X connect 34 0 74 0;
#X connect 35 0 32 0;
#X connect 36 0 37 0;
#X connect 36 1 38 0;
#X connect 37 0 75 0;
#X connect 38 0 75 0;
#X connect 39 0 36 0;
#X connect 40 0 41 0;
#X connect 40 1 42 0;
#X connect 41 0 76 0;
#X connect 42 0 76 0;
#X connect 43 0 40 0;
#X connect 44 0 45 0;
#X connect 44 1 46 0;
#X connect 45 0 77 0;
#X connect 46 0 77 0;
#X connect 47 0 44 0;
#X connect 48 0 49 0;
#X connect 48 1 50 0;
#X connect 49 0 78 0;
#X connect 50 0 78 0;
#X connect 51 0 48 0;
#X connect 52 0 53 0;
#X connect 52 1 54 0;
#X connect 53 0 79 0;
#X connect 54 0 79 0;
#X connect 55 0 52 0;
#X connect 56 0 57 0;
#X connect 56 1 58 0;
#X connect 57 0 80 0;
#X connect 58 0 80 0;
#X connect 59 0 56 0;
#X connect 60 0 61 0;
#X connect 60 1 62 0;
#X connect 61 0 81 0;
#X connect 62 0 81 0;
#X connect 63 0 60 0;
#X connect 64 0 65 0;
#X connect 64 1 66 0;
#X connect 65 0 82 0;
#X connect 66 0 82 0;
#X connect 67 0 64 0;
#X connect 68 0 69 0;
#X connect 68 1 70 0;
#X connect 69 0 83 0;
#X connect 70 0 83 0;
#X connect 71 0 68 0;
#X connect 84 0 25 0;
#X connect 84 0 33 0;
#X connect 84 0 45 0;
#X connect 84 0 53 0;
#X connect 84 0 61 0;
#X connect 85 0 20 0;
#X connect 85 0 29 0;
#X connect 85 0 37 0;
#X connect 85 0 41 0;
#X connect 85 0 49 0;
#X connect 85 0 57 0;
#X connect 85 0 65 0;
#X connect 85 0 69 0;
#X connect 86 0 21 0;
#X connect 86 0 26 0;
#X connect 86 0 30 0;
#X connect 86 0 34 0;
#X connect 86 0 38 0;
#X connect 86 0 42 0;
#X connect 86 0 46 0;
#X connect 86 0 50 0;
#X connect 86 0 54 0;
#X connect 86 0 58 0;
#X connect 86 0 62 0;
#X connect 86 0 66 0;
#X connect 86 0 70 0;
#X restore 449 12 pd drawKeys;
#X obj 171 103 cnv 15 20 75 empty \$0-canvas_12 empty 20 12 0 14 -249661
-66577 0;
#X obj 194 102 cnv 10 16 10 empty \$0-octave_6 empty 20 12 0 14 -249661
-66577 0;
#X obj 194 113 cnv 10 16 10 empty \$0-octave_5 empty 20 12 0 14 -249661
-66577 0;
#X obj 194 124 cnv 10 16 10 empty \$0-octave_4 empty 20 12 0 14 -249661
-66577 0;
#X obj 194 135 cnv 10 16 10 empty \$0-octave_3 empty 20 12 0 14 -260097
-66577 0;
#X obj 194 146 cnv 10 16 10 empty \$0-octave_2 empty 20 12 0 14 -249661
-66577 0;
#X obj 194 157 cnv 10 16 10 empty \$0-octave_1 empty 20 12 0 14 -249661
-66577 0;
#X obj 194 168 cnv 10 16 10 empty \$0-octave_0 empty 20 12 0 14 -249661
-66577 0;
#X obj 285 213 + 2;
#X text 652 424 creation argument is current midi channel that the
Nano is on;
#X obj 270 33 route 0 1 2 3 4 5 6 7 8 9 10 11 12 13 14 15 16 17, f
133;
#X obj 270 12 inlet;
#X msg 1187 86 3;
#N canvas 0 23 450 300 initializeVisual 0;
#X obj 143 39 loadbang;
#X msg 143 80 18;
#X obj 143 101 until;
#X obj 143 122 f, f 6;
#X obj 188 122 + 1;
#X obj 143 60 t b b, f 6;
#X msg 176 80 0;
#X msg 143 143 \$1 0;
#X obj 143 164 outlet;
#X connect 0 0 5 0;
#X connect 1 0 2 0;
#X connect 2 0 3 0;
#X connect 3 0 4 0;
#X connect 3 0 7 0;
#X connect 4 0 3 1;
#X connect 5 0 1 0;
#X connect 5 1 6 0;
#X connect 6 0 3 1;
#X connect 7 0 8 0;
#X restore 101 17 pd initializeVisual;
#X connect 13 0 14 0;
#X connect 14 0 71 0;
#X connect 15 0 16 0;
#X connect 16 0 14 1;
#X connect 16 1 18 1;
#X connect 16 2 20 1;
#X connect 16 3 22 1;
#X connect 16 4 24 1;
#X connect 16 5 40 1;
#X connect 16 6 26 1;
#X connect 16 7 28 1;
#X connect 16 8 30 1;
#X connect 16 9 32 1;
#X connect 16 10 34 1;
#X connect 16 11 36 1;
#X connect 16 12 38 1;
#X connect 17 0 18 0;
#X connect 18 0 73 0;
#X connect 19 0 20 0;
#X connect 20 0 75 0;
#X connect 21 0 22 0;
#X connect 22 0 77 0;
#X connect 23 0 24 0;
#X connect 24 0 79 0;
#X connect 25 0 26 0;
#X connect 26 0 83 0;
#X connect 27 0 28 0;
#X connect 28 0 85 0;
#X connect 29 0 30 0;
#X connect 30 0 87 0;
#X connect 31 0 32 0;
#X connect 32 0 89 0;
#X connect 33 0 34 0;
#X connect 34 0 91 0;
#X connect 35 0 36 0;
#X connect 36 0 93 0;
#X connect 37 0 38 0;
#X connect 38 0 95 0;
#X connect 39 0 40 0;
#X connect 40 0 81 0;
#X connect 41 0 108 0;
#X connect 42 0 112 0;
#X connect 43 0 47 1;
#X connect 43 0 51 1;
#X connect 43 0 55 0;
#X connect 44 0 47 0;
#X connect 45 0 44 0;
#X connect 45 1 48 0;
#X connect 45 2 43 0;
#X connect 46 0 53 0;
#X connect 47 0 46 0;
#X connect 48 0 44 1;
#X connect 49 0 51 0;
#X connect 50 0 49 0;
#X connect 50 1 52 0;
#X connect 50 2 43 0;
#X connect 51 0 54 0;
#X connect 52 0 49 1;
#X connect 53 0 43 1;
#X connect 54 0 53 0;
#X connect 56 0 58 0;
#X connect 56 1 59 0;
#X connect 56 2 60 0;
#X connect 56 3 61 0;
#X connect 56 4 62 0;
#X connect 56 5 63 0;
#X connect 56 6 64 0;
#X connect 56 7 65 0;
#X connect 56 8 66 0;
#X connect 56 9 67 0;
#X connect 56 10 68 0;
#X connect 56 11 69 0;
#X connect 56 12 70 0;
#X connect 57 0 56 0;
#X connect 58 0 71 1;
#X connect 59 0 73 1;
#X connect 60 0 75 1;
#X connect 61 0 77 1;
#X connect 62 0 79 1;
#X connect 63 0 81 1;
#X connect 64 0 83 1;
#X connect 65 0 85 1;
#X connect 66 0 87 1;
#X connect 67 0 89 1;
#X connect 68 0 91 1;
#X connect 69 0 93 1;
#X connect 70 0 95 1;
#X connect 71 0 72 0;
#X connect 71 1 72 1;
#X connect 72 0 98 0;
#X connect 73 0 74 0;
#X connect 73 1 74 1;
#X connect 74 0 98 0;
#X connect 75 0 76 0;
#X connect 75 1 76 1;
#X connect 76 0 98 0;
#X connect 77 0 78 0;
#X connect 77 1 78 1;
#X connect 78 0 98 0;
#X connect 79 0 80 0;
#X connect 79 1 80 1;
#X connect 80 0 98 0;
#X connect 81 0 82 0;
#X connect 81 1 82 1;
#X connect 82 0 98 0;
#X connect 83 0 84 0;
#X connect 83 1 84 1;
#X connect 84 0 98 0;
#X connect 85 0 86 0;
#X connect 85 1 86 1;
#X connect 86 0 98 0;
#X connect 87 0 88 0;
#X connect 87 1 88 1;
#X connect 88 0 98 0;
#X connect 89 0 90 0;
#X connect 89 1 90 1;
#X connect 90 0 98 0;
#X connect 91 0 92 0;
#X connect 91 1 92 1;
#X connect 92 0 98 0;
#X connect 93 0 94 0;
#X connect 93 1 94 1;
#X connect 94 0 98 0;
#X connect 95 0 96 0;
#X connect 95 1 96 1;
#X connect 96 0 98 0;
#X connect 108 0 57 0;
#X connect 110 1 99 1;
#X connect 110 1 17 0;
#X connect 110 2 99 3;
#X connect 110 2 21 0;
#X connect 110 4 25 0;
#X connect 110 4 99 6;
#X connect 110 5 29 0;
#X connect 110 5 99 8;
#X connect 110 6 33 0;
#X connect 110 6 99 10;
#X connect 110 8 50 0;
#X connect 110 9 99 0;
#X connect 110 9 13 0;
#X connect 110 10 19 0;
#X connect 110 10 99 2;
#X connect 110 11 99 4;
#X connect 110 11 23 0;
#X connect 110 12 99 5;
#X connect 110 12 39 0;
#X connect 110 13 99 7;
#X connect 110 13 27 0;
#X connect 110 14 99 9;
#X connect 110 14 31 0;
#X connect 110 15 99 11;
#X connect 110 15 35 0;
#X connect 110 16 37 0;
#X connect 110 16 99 12;
#X connect 110 17 45 0;
#X connect 111 0 110 0;
#X connect 112 0 43 0;
#X connect 113 0 110 0;
#X coords 0 -1 1 1 210 80 2 30 100;
